<svg width="98" height="76" viewBox="0 0 98 76" fill="none" xmlns="http://www.w3.org/2000/svg">
<path d="M0.5782 42.0871C0.97653 45.1164 2.46942 47.8982 4.77841 49.9135C7.0874 51.9289 10.0548 53.0403 13.1271 53.0403C16.1994 53.0403 19.1668 51.9289 21.4758 49.9135C23.7848 47.8982 25.2777 45.1164 25.676 42.0871H0.5782ZM68.9567 67.4224C68.9575 67.6785 68.9075 67.9322 68.8096 68.1691C68.7117 68.406 68.5678 68.6214 68.3861 68.8029C68.2045 68.9845 67.9886 69.1287 67.7509 69.2272C67.5131 69.3257 67.2582 69.3767 67.0006 69.3772H30.4349C29.3608 69.3772 28.4749 68.5002 28.4749 67.4224C28.4775 66.9075 28.6852 66.4147 29.0526 66.0519C29.42 65.6891 29.9171 65.486 30.4349 65.487H66.9987C68.0806 65.487 68.9567 66.3524 68.9567 67.4224ZM28.6885 70.3732H68.745V76H28.6885V70.3732ZM72.324 42.0871C72.7196 45.1184 74.2112 47.9029 76.5202 49.9207C78.8293 51.9385 81.798 53.0517 84.8719 53.0523C87.9454 53.0523 90.9138 51.9393 93.2221 49.9212C95.5303 47.9032 97.0205 45.1183 97.414 42.0871H72.324ZM96.724 38.1715L86.4478 24.0957H91.9416C93.2784 24.0957 94.3544 23.0062 94.3544 21.6594C94.3544 20.3244 93.2764 19.2466 91.9416 19.2466H62.8396C61.9757 16.8803 60.5002 14.782 58.5617 13.163C56.6232 11.5439 54.29 10.4612 51.7969 10.0238V2.42848C51.7969 1.07781 50.7072 7.14238e-06 49.3567 7.14238e-06L49.1294 0.0253444L48.902 7.14238e-06C48.5814 -0.000768019 48.2637 0.0615603 47.9674 0.1834C47.6711 0.30524 47.4019 0.484184 47.1755 0.70992C46.949 0.935657 46.7697 1.20372 46.6479 1.49867C46.5261 1.79363 46.4642 2.10963 46.4657 2.42848V10.0199C43.973 10.457 41.6402 11.5397 39.7022 13.1588C37.7643 14.7779 36.2897 16.8764 35.427 19.2427H6.31904C4.99212 19.2427 3.9102 20.3205 3.9102 21.6555C3.9102 23.0043 4.99212 24.0918 6.31904 24.0918H11.562L1.2838 38.1676H0V40.7676H26.2601V38.1676H24.9704L14.6961 24.0957H38.5473C38.5473 23.5461 38.6081 23.0062 38.6904 22.4897C38.7747 22.2461 38.8315 21.9986 38.8315 21.7432C39.2733 19.8916 40.2195 18.1967 41.5661 16.8445C42.9128 15.4923 44.608 14.5351 46.4657 14.0778V40.7735H46.3638C46.1541 50.8148 41.3501 59.5717 34.2236 64.493H64.043C56.9145 59.5717 52.1144 50.8148 51.893 40.7735H51.7989V14.0778C53.6563 14.5352 55.3512 15.4925 56.6975 16.8447C58.0439 18.1969 58.9897 19.8917 59.4311 21.7432C59.439 21.9986 59.4919 22.2461 59.5781 22.4897C59.6565 23.0082 59.7055 23.5461 59.7055 24.0957H83.3078L73.0296 38.1715H71.7478V40.7715H98V38.1715H96.724ZM12.0834 38.1715H3.8808L12.0834 26.9354V38.1715ZM14.1826 38.1715V26.9354L22.3852 38.1715H14.1826ZM83.8253 38.1715H75.6188L83.8253 26.9354V38.1715ZM85.9146 38.1715V26.9354L94.127 38.1715H85.9146ZM15.5644 15.8592C15.5464 16.4895 15.2819 17.0881 14.8272 17.5276C14.3724 17.9672 13.7632 18.2131 13.1291 18.2131C12.4949 18.2131 11.8857 17.9672 11.431 17.5276C10.9762 17.0881 10.7117 16.4895 10.6938 15.8592C10.6938 14.5221 11.7874 13.4307 13.134 13.4307C14.4746 13.4287 15.5644 14.5221 15.5644 15.8592ZM87.3082 15.7305C87.3082 17.0773 86.2184 18.1454 84.8739 18.1454C84.5541 18.1474 84.2371 18.0864 83.9412 17.9659C83.6453 17.8453 83.3764 17.6676 83.15 17.443C82.9236 17.2185 82.7443 16.9515 82.6223 16.6575C82.5004 16.3636 82.4383 16.0485 82.4396 15.7305C82.4264 15.4045 82.4796 15.0791 82.596 14.774C82.7124 14.4689 82.8896 14.1903 83.117 13.955C83.3443 13.7197 83.6171 13.5325 83.919 13.4046C84.2209 13.2767 84.5457 13.2107 84.8739 13.2107C85.202 13.2107 85.5268 13.2767 85.8287 13.4046C86.1306 13.5325 86.4035 13.7197 86.6308 13.955C86.8581 14.1903 87.0353 14.4689 87.1517 14.774C87.2681 15.0791 87.3214 15.4045 87.3082 15.7305Z" fill="#9F1832"/>
</svg>
