<svg width="76" height="76" viewBox="0 0 76 76" fill="none" xmlns="http://www.w3.org/2000/svg">
<g clip-path="url(#clip0_209_22)">
<path d="M33.5223 6.65005C34.6433 5.53055 36.1431 4.87182 37.7259 4.80382C39.3087 4.73581 40.8595 5.26348 42.0723 6.28271L42.4777 6.65321L48.4943 12.6667H57C58.5973 12.667 60.1355 13.2708 61.3064 14.3572C62.4773 15.4436 63.1945 16.9323 63.3143 18.525L63.3333 19V27.5057L69.35 33.5224C70.4704 34.6435 71.1297 36.144 71.1977 37.7275C71.2657 39.311 70.7375 40.8625 69.7173 42.0755L69.3468 42.4777L63.3302 48.4944V57.0001C63.3307 58.5979 62.7272 60.1368 61.6408 61.3085C60.5543 62.4801 59.0652 63.1977 57.4718 63.3176L57 63.3334H48.4975L42.4808 69.3501C41.3597 70.4704 39.8592 71.1297 38.2757 71.1977C36.6922 71.2657 35.1407 70.7375 33.9277 69.7174L33.5255 69.3501L27.5088 63.3334H19C17.4022 63.3339 15.8632 62.7304 14.6916 61.644C13.52 60.5575 12.8023 59.0684 12.6825 57.4751L12.6667 57.0001V48.4944L6.65 42.4777C5.52961 41.3566 4.87032 39.8561 4.80232 38.2726C4.73431 36.6891 5.26253 35.1376 6.28266 33.9245L6.65 33.5224L12.6667 27.5057V19C12.667 17.4028 13.2708 15.8646 14.3571 14.6937C15.4435 13.5227 16.9322 12.8055 18.525 12.6857L19 12.6667H27.5057L33.5223 6.65005ZM38 11.134L31.9833 17.1507C30.9315 18.2009 29.5437 18.8477 28.063 18.9779L27.5057 19H19V27.5057C19.0004 28.9937 18.4768 30.4343 17.5212 31.5749L17.1443 31.9865L11.1277 38.0032L17.1443 44.0167C18.1957 45.0681 18.8437 46.4559 18.9747 47.937L19 48.4944V57.0001H27.5057C28.9937 56.9997 30.4343 57.5232 31.5748 58.4789L31.9865 58.8557L38 64.8724L44.0167 58.8557C45.0681 57.8043 46.4559 57.1564 47.937 57.0254L48.4943 57.0001H57V48.4944C56.9996 47.0064 57.5232 45.5658 58.4788 44.4252L58.8557 44.0135L64.8723 38L58.8557 31.9834C57.8043 30.932 57.1563 29.5442 57.0253 28.063L57 27.5057V19H48.4943C47.0063 19.0004 45.5657 18.4769 44.4252 17.5212L44.0135 17.1444L37.9968 11.1277L38 11.134ZM47.7533 28.4494C48.3232 27.8814 49.0879 27.5517 49.892 27.5272C50.6962 27.5026 51.4796 27.7851 52.083 28.3172C52.6865 28.8493 53.0648 29.5911 53.1411 30.392C53.2174 31.193 52.986 31.9929 52.4938 32.6294L52.2278 32.927L36.7745 48.3804C36.1712 48.9845 35.367 49.346 34.5146 49.3962C33.6623 49.4464 32.8212 49.1818 32.1512 48.6527L31.8472 48.3835L24.2345 40.7709C23.6605 40.2023 23.3256 39.4359 23.2982 38.6285C23.2708 37.8211 23.553 37.0337 24.0871 36.4275C24.6213 35.8214 25.3668 35.4423 26.1713 35.3679C26.9758 35.2935 27.7782 35.5293 28.4145 36.0272L28.7122 36.29L34.3108 41.8887L47.7533 28.4494Z" fill="#9F1832"/>
</g>
<defs>
<clipPath id="clip0_209_22">
<rect width="76" height="76" fill="white"/>
</clipPath>
</defs>
</svg>
