<svg width="64" height="64" viewBox="0 0 64 64" fill="none" xmlns="http://www.w3.org/2000/svg">
<path d="M31.9997 30.6667C30.2316 30.6667 28.5359 29.9643 27.2856 28.7141C26.0354 27.4638 25.333 25.7681 25.333 24C25.333 22.2319 26.0354 20.5362 27.2856 19.286C28.5359 18.0357 30.2316 17.3333 31.9997 17.3333C33.7678 17.3333 35.4635 18.0357 36.7137 19.286C37.964 20.5362 38.6663 22.2319 38.6663 24C38.6663 24.8755 38.4939 25.7424 38.1589 26.5512C37.8238 27.3601 37.3328 28.095 36.7137 28.7141C36.0947 29.3331 35.3597 29.8242 34.5509 30.1592C33.7421 30.4942 32.8752 30.6667 31.9997 30.6667ZM31.9997 5.33334C27.049 5.33334 22.301 7.3 18.8003 10.8007C15.2997 14.3014 13.333 19.0493 13.333 24C13.333 38 31.9997 58.6667 31.9997 58.6667C31.9997 58.6667 50.6663 38 50.6663 24C50.6663 19.0493 48.6997 14.3014 45.199 10.8007C41.6983 7.3 36.9504 5.33334 31.9997 5.33334Z" fill="#F3002F"/>
</svg>
